<svg id="_69366" data-name="69366" xmlns="http://www.w3.org/2000/svg" width="18.901" height="18.901" viewBox="0 0 18.901 18.901">
  <g id="Group_273" data-name="Group 273" transform="translate(0 0)">
    <g id="Group_272" data-name="Group 272">
      <path id="Path_229" data-name="Path 229" d="M21.748,23.64a1.889,1.889,0,1,0-1.891-1.892A1.895,1.895,0,0,0,21.748,23.64Z" transform="translate(-12.298 -12.297)" fill="#f4f4f4"/>
      <path id="Path_230" data-name="Path 230" d="M32.713,15.782V13.96h-.237l-1.585,0,.006,1.822Z" transform="translate(-19.131 -8.646)" fill="#f4f4f4"/>
      <path id="Path_231" data-name="Path 231" d="M9.451,0A9.451,9.451,0,1,0,18.9,9.451,9.461,9.461,0,0,0,9.451,0Zm5.375,8.348v4.4a2.08,2.08,0,0,1-2.077,2.078H6.153a2.079,2.079,0,0,1-2.077-2.078V6.154A2.079,2.079,0,0,1,6.153,4.076h6.594a2.08,2.08,0,0,1,2.078,2.077Z" transform="translate(0 0)" fill="#f4f4f4"/>
      <path id="Path_232" data-name="Path 232" d="M20.725,23.032a2.94,2.94,0,1,1-5.663-1.1h-1.6v4.4a1.03,1.03,0,0,0,1.03,1.029h6.594a1.03,1.03,0,0,0,1.03-1.029v-4.4H20.506A2.9,2.9,0,0,1,20.725,23.032Z" transform="translate(-8.334 -13.581)" fill="#f4f4f4"/>
    </g>
  </g>
</svg>
