<svg xmlns="http://www.w3.org/2000/svg" width="339.271" height="364.6" viewBox="0 0 339.271 364.6"><defs><style>.a{opacity:0.085;}.b{fill:#fff;}.c{fill:#111217;}</style></defs><g class="a"><path class="b" d="M297.191,71.768a3.657,3.657,0,0,0-3.369-2.958c-1.4-.11-31.056-2.188-31.056-2.188S242.17,47.3,239.91,45.161s-6.679-1.487-8.394-1.01c-.252.07-4.5,1.309-11.526,3.364-6.88-18.708-19.022-35.9-40.382-35.9-.59,0-1.2.023-1.8.055C171.729,4.077,164.2.779,157.7.779c-49.759,0-73.531,58.782-80.985,88.653C57.384,95.094,43.649,99.119,41.894,99.64c-10.792,3.2-11.134,3.521-12.551,13.131C28.277,120.046.038,326.419.038,326.419l220.044,38.96,119.227-24.374S297.455,73.6,297.192,71.768Zm-89.363-20.7-18.619,5.446c.007-1.24.013-2.46.013-3.794,0-11.627-1.708-20.989-4.448-28.41C195.781,25.616,203.111,37.45,207.828,51.069ZM171.121,26.616c3.06,7.246,5.05,17.644,5.05,31.676,0,.718-.007,1.374-.013,2.038-12.109,3.544-25.267,7.392-38.454,11.253,7.4-27,21.283-40.047,33.417-44.967ZM156.338,13.391a11.678,11.678,0,0,1,6.382,2.036c-15.947,7.091-33.04,24.951-40.259,60.617l-30.4,8.9c8.455-27.2,28.531-71.549,64.271-71.549Z" transform="translate(-0.038 -0.779)"/><path class="c" d="M239.453,60.07c-1.4-.11-31.056-2.188-31.056-2.188S187.8,38.56,185.541,36.421a5.8,5.8,0,0,0-3.18-1.379L165.724,356.637,284.94,332.266S243.086,64.86,242.822,63.028a3.657,3.657,0,0,0-3.369-2.958" transform="translate(54.33 7.961)"/><path d="M166.75,105.692l-14.7,41.325a70.7,70.7,0,0,0-28.669-6.5c-23.147,0-24.312,13.727-24.312,17.186,0,18.874,52.063,26.106,52.063,70.315,0,34.782-23.345,57.179-54.822,57.179-37.772,0-57.089-22.215-57.089-22.215l10.114-31.578s19.856,16.109,36.61,16.109c10.948,0,15.4-8.146,15.4-14.1,0-24.62-42.713-25.718-42.713-66.173,0-34.049,25.862-67,78.065-67,20.115,0,30.052,5.445,30.052,5.445" transform="translate(12.82 24.594)"/></g></svg>