<svg xmlns="http://www.w3.org/2000/svg" width="20" height="18.9" viewBox="0 0 20 18.9"><defs><style>.a{fill:#fff;opacity:0.611;}</style></defs><path class="a" d="M20,2H4A1.951,1.951,0,0,0,2,3.89V19.01A1.951,1.951,0,0,0,4,20.9H20a1.951,1.951,0,0,0,2-1.89V3.89A1.951,1.951,0,0,0,20,2ZM8.1,17.12H5V8.991H8.1ZM6.5,8.046A1.361,1.361,0,0,1,5,6.725C5,5.969,5.6,5.4,6.6,5.4A1.361,1.361,0,0,1,8.1,6.725C8.1,7.481,7.5,8.046,6.5,8.046ZM19,17.12H15.9V12.678c0-1.228-.8-1.512-1.1-1.512a1.342,1.342,0,0,0-1.3,1.512V17.12H10.4V8.991h3.1v1.138c.4-.665,1.2-1.138,2.7-1.138s2.7,1.138,2.7,3.688V17.12Z" transform="translate(-2 -2)"/></svg>