<svg xmlns="http://www.w3.org/2000/svg" width="20.244" height="19.13" viewBox="0 0 20.244 19.13"><defs><style>.a{fill:#fff;fill-rule:evenodd;opacity:0.611;}</style></defs><path class="a" d="M33.649,16H18.595A2.536,2.536,0,0,0,16,18.452V32.678a2.535,2.535,0,0,0,2.595,2.452H33.649a2.536,2.536,0,0,0,2.595-2.452V18.452A2.536,2.536,0,0,0,33.649,16ZM31.5,23q.007.167.007.334a6.711,6.711,0,0,1-.188,1.556,7.622,7.622,0,0,1-7.7,5.78,8.283,8.283,0,0,1-4.25-1.159,5.959,5.959,0,0,0,.662.036,5.824,5.824,0,0,0,3.442-1.1,2.756,2.756,0,0,1-2.589-1.79,2.952,2.952,0,0,0,1.253-.044,2.725,2.725,0,0,1-2.028-1.6,2.4,2.4,0,0,1-.184-.934v-.032a2.916,2.916,0,0,0,1.249.323,2.541,2.541,0,0,1-1.236-2.146,2.44,2.44,0,0,1,.374-1.3,8.078,8.078,0,0,0,5.712,2.695,2.479,2.479,0,0,1-.071-.588,2.68,2.68,0,0,1,2.772-2.579,2.862,2.862,0,0,1,2.022.814,5.777,5.777,0,0,0,1.761-.627,2.628,2.628,0,0,1-1.219,1.427,5.873,5.873,0,0,0,1.592-.405A5.422,5.422,0,0,1,31.5,23Z" transform="translate(-16 -16)"/></svg>